{
  "accessors": [
    {
      "bufferView": 2,
      "componentType": 5126,
      "count": 27272,
      "max": [
        0.09870977699756622,
        0.29896724224090576,
        0.08262062817811966
      ],
      "min": [
        -0.09870977699756622,
        0.0,
        -0.08262062817811966
      ],
      "type": "VEC3"
    },
    {
      "bufferView": 2,
      "byteOffset": 327264,
      "componentType": 5126,
      "count": 27272,
      "max": [
        0.9999902844429016,
        0.9999997615814209,
        0.9999882578849792
      ],
      "min": [
        -0.9999256134033203,
        -0.9999966025352478,
        -0.9999860525131226
      ],
      "type": "VEC3"
    },
    {
      "bufferView": 1,
      "componentType": 5126,
      "count": 27272,
      "max": [
        0.9858319759368896,
        0.9944927096366882
      ],
      "min": [
        6.108367233537138e-05,
        5.4955482482910156e-05
      ],
      "type": "VEC2"
    },
    {
      "bufferView": 0,
      "componentType": 5125,
      "count": 130623,
      "type": "SCALAR"
    }
  ],
  "asset": {
    "extras": {
      "author": "ZeuxisVR (https://sketchfab.com/Eric.Hupe)",
      "license": "CC-BY-NC-4.0 (http://creativecommons.org/licenses/by-nc/4.0/)",
      "source": "https://sketchfab.com/3d-models/gian-lorenzo-bernini-david-a08e3b6261744af68a5fda6126bb68e5",
      "title": "Gian Lorenzo Bernini, David"
    },
    "generator": "Sketchfab-14.77.0",
    "version": "2.0"
  },
  "bufferViews": [
    {
      "buffer": 0,
      "byteLength": 522492,
      "name": "floatBufferViews",
      "target": 34963
    },
    {
      "buffer": 0,
      "byteLength": 218176,
      "byteOffset": 522492,
      "byteStride": 8,
      "name": "floatBufferViews",
      "target": 34962
    },
    {
      "buffer": 0,
      "byteLength": 654528,
      "byteOffset": 740668,
      "byteStride": 12,
      "name": "floatBufferViews",
      "target": 34962
    }
  ],
  "buffers": [
    {
      "byteLength": 1395196,
      "uri": "scene.bin"
    }
  ],
  "extensionsUsed": [
    "KHR_materials_unlit"
  ],
  "images": [
    {
      "uri": "textures/Material_0_baseColor.jpeg"
    }
  ],
  "materials": [
    {
      "doubleSided": true,
      "extensions": {
        "KHR_materials_unlit": {}
      },
      "name": "Material_0",
      "pbrMetallicRoughness": {
        "baseColorTexture": {
          "index": 0
        },
        "metallicFactor": 0.0
      }
    }
  ],
  "meshes": [
    {
      "name": "Node 130623_Material 0_0",
      "primitives": [
        {
          "attributes": {
            "NORMAL": 1,
            "POSITION": 0,
            "TEXCOORD_0": 2
          },
          "indices": 3,
          "material": 0,
          "mode": 4
        }
      ]
    }
  ],
  "nodes": [
    {
      "children": [
        1
      ],
      "matrix": [
        1.0,
        0.0,
        0.0,
        0.0,
        0.0,
        2.220446049250313e-16,
        -1.0,
        0.0,
        0.0,
        1.0,
        2.220446049250313e-16,
        0.0,
        0.0,
        0.0,
        0.0,
        1.0
      ],
      "name": "Sketchfab_model"
    },
    {
      "children": [
        2
      ],
      "matrix": [
        1.0,
        0.0,
        0.0,
        0.0,
        0.0,
        0.0,
        1.0,
        0.0,
        0.0,
        -1.0,
        0.0,
        0.0,
        0.0,
        0.0,
        0.0,
        1.0
      ],
      "name": "bae7992bf4b547e0a1921a8de1de0133.fbx"
    },
    {
      "children": [
        3
      ],
      "name": "RootNode"
    },
    {
      "children": [
        4
      ],
      "name": "Node 130623"
    },
    {
      "mesh": 0,
      "name": "Node 130623_Material 0_0"
    }
  ],
  "samplers": [
    {
      "magFilter": 9729,
      "minFilter": 9987,
      "wrapS": 10497,
      "wrapT": 10497
    }
  ],
  "scene": 0,
  "scenes": [
    {
      "name": "Sketchfab_Scene",
      "nodes": [
        0
      ]
    }
  ],
  "textures": [
    {
      "sampler": 0,
      "source": 0
    }
  ]
}
